<?xml version="1.0" encoding="UTF-8"?>
<svg width="1024" height="1024" viewBox="0 0 1024 1024" xmlns="http://www.w3.org/2000/svg">
  <path id="1" d="M 0,512 C 0,512 0,0 0,0 C 0,0 512,0 512,0 C 512,0 1024,0 1024,0 C 1024,0 1024,512 1024,512 C 1024,512 1024,1024 1024,1024 C 1024,1024 512,1024 512,1024 C 512,1024 0,1024 0,1024 C 0,1024 0,512 0,512M 653.771,873.522 C 655.570,872.434 657.943,869.682 659.045,867.406 C 660.988,863.393 661.040,861.550 660.774,806.207 C 660.504,750.092 660.465,749.099 658.408,746.323 C 656.310,743.492 650.448,739 648.852,739 C 646.664,739 648.407,742.589 652.250,745.999 C 652.250,745.999 656.500,749.770 656.500,749.770 C 656.500,749.770 656.782,805.916 656.782,805.916 C 657.039,857.106 656.914,862.379 655.360,865.654 C 652.143,872.434 661.161,872.049 512.424,871.761 C 512.424,871.761 377.836,871.500 377.836,871.500 C 377.836,871.500 374.918,868.234 374.918,868.234 C 374.918,868.234 372,864.968 372,864.968 C 372,864.968 372,807.561 372,807.561 C 372,807.561 372,750.153 372,750.153 C 372,750.153 374.589,747.077 374.589,747.077 C 376.013,745.385 377.813,744 376.200,740.405 C 372.038,742.571 368.925,746.421 367.916,750.653 C 367.375,752.923 367.268,777.389 367.658,810.338 C 368.303,864.927 368.366,866.247 370.429,869.338 C 371.590,871.077 374.106,873.290 376.020,874.256 C 379.296,875.909 387.462,875.997 515,875.756 C 647.997,875.505 650.560,875.464 653.771,873.522M 432.566,850.949 C 445.398,848.676 459.508,842.778 471.500,834.674 C 474.800,832.444 482.520,825.724 488.655,819.741 C 488.655,819.741 499.810,808.863 499.810,808.863 C 499.810,808.863 502.810,813.181 502.810,813.181 C 507.391,819.774 510.001,822.232 513.919,825.574 C 511.733,827.553 511.445,830.045 513.200,831.800 C 514.611,833.211 548.660,833.502 550.837,832.122 C 551.573,831.656 552.023,830.200 551.837,828.887 C 551.501,826.514 551.418,826.499 537.250,826.223 C 529.412,826.070 523.007,825.620 523.016,825.223 C 523.025,824.826 526.175,820.295 530.016,815.157 C 533.857,810.018 537,805.181 537,804.407 C 537,802.077 538.892,802.790 543.885,807 C 546.494,809.200 549.330,811 550.186,811 C 551.491,811 572.717,788.950 588.834,770.852 C 593.362,765.768 595,765.432 595,769.590 C 595,772.785 597.842,773.936 599.645,771.471 C 601.578,768.828 601.510,755.133 599.561,754.385 C 598.323,753.910 593.253,754.632 584.185,756.575 C 582.475,756.941 581.952,757.649 582.185,759.285 C 582.437,761.055 583.153,761.498 585.750,761.490 C 587.537,761.485 589,761.639 589,761.832 C 589,762.313 555.876,797.904 552.616,800.925 C 552.616,800.925 549.999,803.349 549.999,803.349 C 549.999,803.349 546.330,800.380 546.330,800.380 C 540.205,795.422 540.120,794.807 544.822,789.465 C 547.120,786.854 548.993,784.219 548.985,783.609 C 548.938,780.212 547.488,779.948 530.426,780.225 C 530.426,780.225 513.500,780.500 512.867,786 C 512.867,786 521.684,786.011 521.684,786.011 C 526.533,786.017 532.173,786.299 534.698,791 C 534.021,791 528.531,795.950 522.500,802 C 516.469,808.050 511.266,813 510.937,813 C 510.608,813 508.813,810.876 506.949,808.280 C 499.884,798.442 501.564,798.037 486.651,813.156 C 468.092,831.972 453.747,841.452 433.723,848.134 C 421.158,852.327 420.873,853.020 432.566,850.949M 612.241,847.250 C 614.590,844.599 634.128,800.906 633.778,799.087 C 633.581,798.065 632.421,797.500 630.519,797.500 C 627.700,797.500 627.339,798.033 622.588,809.188 C 619.850,815.617 617.329,820.703 616.987,820.492 C 616.645,820.281 614.410,815.471 612.020,809.804 C 606.902,797.669 606.457,797 603.485,797 C 599.235,797 599.743,799.953 606.617,815.186 C 606.617,815.186 613.309,830.015 613.309,830.015 C 613.309,830.015 609.490,838.151 609.490,838.151 C 605.838,845.934 605.753,846.346 607.527,847.644 C 609.920,849.394 610.375,849.356 612.241,847.250M 402.345,830.750 C 403.110,829.513 404.780,825.912 406.053,822.750 C 406.053,822.750 408.368,817 408.368,817 C 408.368,817 419.434,817.003 419.434,817.003 C 419.434,817.003 430.500,817.007 430.500,817.007 C 430.500,817.007 433.500,824.753 433.500,824.753 C 436.081,831.419 436.834,832.500 438.891,832.500 C 444.092,832.500 443.691,830.484 433.511,805.444 C 428.157,792.275 423.202,780.891 422.500,780.147 C 419.596,777.070 417.377,779.833 410.481,795.115 C 406.741,803.404 403.190,810.307 402.590,810.456 C 397.050,811.832 395.500,812.722 399.374,819.993 C 396.834,825.851 395.739,829.876 396.292,831.318 C 397.215,833.722 400.709,833.395 402.345,830.750M 454.959,831.550 C 455.621,830.752 457.349,822.872 458.800,814.039 C 460.345,804.632 461.860,798.120 462.457,798.319 C 463.018,798.506 464.116,800.424 464.896,802.580 C 465.676,804.736 467.647,810.038 469.274,814.362 C 469.274,814.362 472.232,822.225 472.232,822.225 C 472.232,822.225 480.378,814.121 480.378,814.121 C 486.617,807.915 488.956,804.802 490.369,800.824 C 491.823,796.729 492.407,795.974 493.125,797.258 C 493.964,798.757 494.277,798.752 497.079,797.193 C 500.045,795.542 500.105,795.361 499.475,790 C 498.431,781.123 495.841,777.492 492.220,779.829 C 491.233,780.466 483.827,798.754 478.382,814 C 477.607,816.171 476.119,812.979 469.998,796 C 464.074,779.570 463.175,778.144 459.726,779.715 C 457.553,780.705 457.064,782.559 453.158,804.643 C 450.837,817.765 448.952,829.250 448.969,830.167 C 449.021,832.952 453.028,833.877 454.959,831.550M 504.832,829.592 C 505.353,825.022 504.201,820.758 501.564,817.500 C 499.405,814.832 498.970,814.666 497.630,816 C 496.334,817.291 496.296,818.411 497.362,824.023 C 498.871,831.965 499.572,833.202 502.344,832.807 C 503.889,832.587 504.594,831.677 504.832,829.592M 565.800,831.800 C 567.102,830.498 567.585,802 566.305,802 C 565.923,802 564.348,803.209 562.805,804.687 C 560.033,807.342 560,807.517 560,819.520 C 560,826.200 560.300,831.966 560.667,832.333 C 561.728,833.394 564.493,833.107 565.800,831.800M 585.847,831.684 C 586.482,830.918 587.057,824.751 587.220,816.934 C 587.220,816.934 587.500,803.500 587.500,803.500 C 587.500,803.500 590,803.349 590,803.349 C 591.375,803.266 593.542,803.153 594.816,803.099 C 596.735,803.017 597.078,802.528 596.816,800.250 C 596.526,797.732 596.100,797.474 591.750,797.195 C 591.750,797.195 587,796.890 587,796.890 C 587,796.890 587,793.017 587,793.017 C 587,788.129 589.313,785.573 592.908,786.486 C 597.761,787.719 600.242,787.506 601.359,785.764 C 602.250,784.374 602.021,783.577 600.208,781.764 C 598.410,779.966 596.823,779.500 592.491,779.500 C 587.676,779.500 586.660,779.879 583.798,782.741 C 581.208,785.331 580.452,787.035 580.029,791.234 C 579.536,796.137 579.300,796.521 576.500,796.998 C 574.147,797.399 573.433,798.089 573.189,800.198 C 572.914,802.572 573.295,802.965 576.439,803.555 C 576.439,803.555 580,804.223 580,804.223 C 580,804.223 580,818.028 580,818.028 C 580,831.842 580.205,832.681 583.628,832.921 C 584.248,832.964 585.246,832.408 585.847,831.684M 565.483,784.019 C 566.950,782.398 567.047,781.762 566.016,780.519 C 564.270,778.415 561.274,778.620 560.039,780.928 C 557.681,785.333 562.049,787.813 565.483,784.019M 800.244,644.658 C 810.216,640.786 817.948,631.060 820.037,619.758 C 820.692,616.213 820.952,573.301 820.774,497.893 C 820.513,387.279 820.406,381.263 818.643,376.715 C 816.072,370.085 808.239,361.806 801.770,358.882 C 801.770,358.882 796.500,356.500 796.500,356.500 C 796.500,356.500 512,356.500 512,356.500 C 512,356.500 227.500,356.500 227.500,356.500 C 227.500,356.500 221.933,359.111 221.933,359.111 C 214.971,362.376 209.485,367.885 206.109,375 C 206.109,375 203.500,380.500 203.500,380.500 C 203.500,380.500 203.500,501.500 203.500,501.500 C 203.500,501.500 203.500,622.500 203.500,622.500 C 203.500,622.500 205.661,627.176 205.661,627.176 C 210.043,636.657 219.203,643.960 229.195,645.938 C 231.563,646.407 359.950,646.725 514.500,646.645 C 784.893,646.506 795.679,646.431 800.244,644.658" stroke="#FFFFFF" fill="#FFFFFF" stroke-width="1" />
  <path id="25" d="M 229.195,645.938 C 219.203,643.960 210.043,636.657 205.661,627.176 C 205.661,627.176 203.500,622.500 203.500,622.500 C 203.500,622.500 203.500,501.500 203.500,501.500 C 203.500,501.500 203.500,380.500 203.500,380.500 C 203.500,380.500 206.109,375 206.109,375 C 209.485,367.885 214.971,362.376 221.933,359.111 C 221.933,359.111 227.500,356.500 227.500,356.500 C 227.500,356.500 512,356.500 512,356.500 C 512,356.500 796.500,356.500 796.500,356.500 C 796.500,356.500 801.770,358.882 801.770,358.882 C 808.239,361.806 816.072,370.085 818.643,376.715 C 820.406,381.263 820.513,387.279 820.774,497.893 C 820.952,573.301 820.692,616.213 820.037,619.758 C 817.948,631.060 810.216,640.786 800.244,644.658 C 795.679,646.431 784.893,646.506 514.500,646.645 C 359.950,646.725 231.563,646.407 229.195,645.938M 798,635.636 C 802.899,633.027 806.816,629.180 809.342,624.500 C 809.342,624.500 811.500,620.500 811.500,620.500 C 811.500,620.500 811.500,501.500 811.500,501.500 C 811.500,501.500 811.500,382.500 811.500,382.500 C 811.500,382.500 809.148,377.723 809.148,377.723 C 806.559,372.464 802.013,368.483 796.252,366.427 C 793.152,365.321 743.630,365.080 511.446,365.044 C 511.446,365.044 230.393,365 230.393,365 C 230.393,365 225.168,367.603 225.168,367.603 C 222.295,369.035 218.841,371.654 217.492,373.422 C 211.750,380.950 212,375.132 212,500.944 C 212,630.667 211.600,623.364 219.129,630.893 C 226.718,638.482 201.035,637.891 513.500,637.685 C 785.563,637.506 794.611,637.441 798,635.636" stroke="#000000" fill="#000000" stroke-width="1" />
  <path id="1" d="M 412,809.605 C 412,808.752 418.245,794.453 418.943,793.708 C 419.351,793.272 420.161,793.497 420.743,794.208 C 421.893,795.613 427,807.826 427,809.172 C 427,809.627 423.625,810 419.500,810 C 415.375,810 412,809.822 412,809.605" stroke="#FFFFFF" fill="#FFFFFF" stroke-width="1" />
  <path id="1" d="M 227.873,636.441 C 221.536,634.483 215.444,628.236 213.505,621.706 C 211.223,614.021 211.237,387.415 213.520,380.944 C 215.766,374.579 219.305,370.525 225.168,367.603 C 225.168,367.603 230.393,365 230.393,365 C 230.393,365 511.446,365.044 511.446,365.044 C 743.630,365.080 793.152,365.321 796.252,366.427 C 802.013,368.483 806.559,372.464 809.148,377.723 C 809.148,377.723 811.500,382.500 811.500,382.500 C 811.500,382.500 811.500,501.500 811.500,501.500 C 811.500,501.500 811.500,620.500 811.500,620.500 C 811.500,620.500 809.342,624.500 809.342,624.500 C 806.816,629.180 802.899,633.027 798,635.636 C 794.611,637.441 785.563,637.506 513.500,637.685 C 272.369,637.844 231.843,637.667 227.873,636.441M 340.500,594.587 C 375.284,588.453 407.432,573.077 437,548.430 C 450.032,537.567 461.321,526.619 471.248,515.215 C 479.073,506.226 480.465,505.036 481.704,506.275 C 482.490,507.061 486.825,513.058 491.336,519.602 C 503.142,536.726 500.370,537.463 529.727,509.389 C 542.802,496.885 553.650,486.283 553.833,485.828 C 554.564,484.013 556.620,485.321 564.715,492.750 C 580.857,507.564 585.289,510.953 588.555,510.977 C 591.177,510.997 593.088,509.399 602.055,499.685 C 607.800,493.462 623.112,477.149 636.083,463.435 C 649.054,449.721 664.568,433.249 670.559,426.831 C 676.550,420.413 681.800,415.377 682.226,415.640 C 682.652,415.903 683,418.926 683,422.359 C 683,429.265 684.030,431 688.129,431 C 693.124,431 693.667,429.412 694.453,412.494 C 695.466,390.713 696.328,391.366 671.500,395.102 C 663.800,396.261 656.938,397.666 656.250,398.226 C 654.458,399.686 654.709,404.566 656.677,406.534 C 658.340,408.197 663.565,408.102 670.987,406.276 C 672.943,405.795 671.767,407.492 665.487,414.212 C 651.649,429.021 606.921,476.081 597.007,486.263 C 597.007,486.263 587.500,496.027 587.500,496.027 C 587.500,496.027 577.831,487.263 577.831,487.263 C 572.513,482.443 568.125,478.100 568.081,477.611 C 568.037,477.122 570.588,473.603 573.750,469.791 C 586.354,454.600 587.296,452.206 582.545,447.455 C 582.545,447.455 580.091,445 580.091,445 C 580.091,445 546.680,445 546.680,445 C 514.394,445 513.181,445.070 510.635,447.073 C 507.333,449.670 507.022,455.022 510,458 C 511.898,459.898 513.333,460 538.047,460 C 538.047,460 564.094,460 564.094,460 C 564.094,460 560.880,464 560.880,464 C 559.051,466.276 556.798,468 555.653,468 C 554.403,468 547.556,473.960 537.571,483.739 C 528.732,492.395 517.659,503.203 512.963,507.756 C 512.963,507.756 504.425,516.035 504.425,516.035 C 504.425,516.035 498.344,507.268 498.344,507.268 C 482.129,483.887 481.901,483.801 470.337,496.750 C 444.668,525.494 421.684,546.363 399.071,561.459 C 379.504,574.522 347.586,588.851 328.704,593.050 C 325.516,593.759 322.677,594.712 322.395,595.169 C 321.593,596.467 331.675,596.143 340.500,594.587M 718.358,589.157 C 719.275,588.143 728.979,567.732 739.921,543.798 C 750.863,519.864 760.757,498.436 761.908,496.181 C 765.930,488.297 763.810,482 757.134,482 C 755.070,482 752.654,482.562 751.764,483.250 C 750.874,483.938 746.938,491.925 743.017,501 C 730.321,530.386 729.589,532 728.951,532 C 728.158,532 727.570,530.732 717.342,507 C 706.755,482.434 707.237,483.341 704.050,482.021 C 700.625,480.602 696.702,481.998 694.448,485.438 C 692.423,488.529 691.887,486.976 705.003,516 C 710.595,528.375 716.312,541.328 717.706,544.785 C 717.706,544.785 720.241,551.070 720.241,551.070 C 720.241,551.070 713.120,566.870 713.120,566.870 C 709.204,575.560 706,583.440 706,584.381 C 706,585.322 707.105,587.195 708.455,588.545 C 711.398,591.488 715.991,591.772 718.358,589.157M 274.179,554.146 C 275.102,553.241 278.625,546.200 282.008,538.500 C 285.391,530.800 288.460,524.204 288.829,523.842 C 289.198,523.480 299.443,522.863 311.596,522.470 C 311.596,522.470 333.692,521.756 333.692,521.756 C 333.692,521.756 337.432,531.128 337.432,531.128 C 346.602,554.107 346.951,554.787 350.099,555.885 C 355.669,557.827 362.032,552.852 360.443,547.799 C 359.346,544.310 323.130,455.101 320.885,450.356 C 318.404,445.114 314.424,443.168 309.962,445.016 C 306.557,446.427 306.776,446 289.184,485.471 C 289.184,485.471 278.500,509.443 278.500,509.443 C 278.500,509.443 271.111,510.551 271.111,510.551 C 263.243,511.731 261,513.325 261,517.737 C 261,520.850 265.260,525 268.455,525 C 269.855,525 271,525.286 271,525.636 C 271,525.986 268.663,531.435 265.805,537.743 C 260.896,548.581 260.691,549.358 262.085,551.842 C 264.915,556.883 270.333,557.916 274.179,554.146M 386.231,554.136 C 387.520,552.904 389.504,543.674 393.999,517.991 C 401.142,477.177 400.873,478.466 401.980,479.605 C 402.458,480.097 407.211,492.200 412.543,506.500 C 417.875,520.800 422.535,532.828 422.899,533.230 C 423.263,533.632 431.340,526.171 440.849,516.651 C 440.849,516.651 458.137,499.342 458.137,499.342 C 458.137,499.342 461.982,488.921 461.982,488.921 C 464.097,483.190 466.203,478.500 471.055,483.434 C 472.915,481.193 477.497,479 480.321,479 C 480.321,479 482.742,479 482.742,479 C 482.742,479 480.462,466.250 480.462,466.250 C 479.208,459.237 477.866,452.255 477.479,450.734 C 476.627,447.384 472.578,444 469.421,444 C 464.219,444 462.397,447.360 450.447,479 C 435.745,517.927 434.915,520 434.039,520 C 433.392,520 413.744,468.510 408.759,453.750 C 406.711,447.687 403.243,444 399.588,444 C 397.052,444 393.405,446.375 392.049,448.908 C 391.209,450.477 384.381,485.567 375.452,534.192 C 373.934,542.456 373.042,550.030 373.412,551.505 C 373.829,553.166 375.247,554.635 377.285,555.516 C 380.851,557.058 383.622,556.630 386.231,554.136M 488.383,556.045 C 489.765,555.520 491.624,553.977 492.514,552.619 C 494.009,550.338 493.999,549.476 492.393,541.325 C 490.874,533.617 489.965,531.512 485.201,524.689 C 485.201,524.689 479.748,516.878 479.748,516.878 C 479.748,516.878 476.915,520.189 476.915,520.189 C 475.357,522.010 474.074,523.950 474.066,524.500 C 474.010,528.202 478.987,552.280 480.080,553.597 C 481.161,554.899 483.085,556.046 485.685,556.937 C 485.787,556.972 487.001,556.570 488.383,556.045M 622.250,553.886 C 623.833,551.979 624,548.840 624,520.948 C 624,503.613 623.603,489.873 623.094,489.558 C 622.596,489.250 619.221,492.204 615.594,496.121 C 609.273,502.948 608.999,503.456 608.967,508.372 C 608.949,511.193 608.836,522.201 608.717,532.836 C 608.717,532.836 608.500,552.172 608.500,552.172 C 608.500,552.172 611.413,554.678 611.413,554.678 C 614.850,557.635 619.414,557.302 622.250,553.886M 664.235,554.281 C 665.790,552.879 665.997,549.811 666.235,524.609 C 666.235,524.609 666.500,496.500 666.500,496.500 C 666.500,496.500 675.500,496.234 675.500,496.234 C 685.530,495.937 688,494.493 688,488.928 C 688,483.648 684.833,482 674.686,482 C 674.686,482 665.749,482 665.749,482 C 665.749,482 666.197,473.477 666.197,473.477 C 666.719,463.532 668.615,460.027 674.248,458.598 C 677.265,457.832 678.490,458.098 682.330,460.348 C 687.737,463.516 692.251,463.749 695,461 C 699.204,456.796 696.866,450.543 689.684,446.783 C 684.011,443.813 670.235,443.580 665,446.366 C 655.209,451.577 651.844,457.769 651.206,471.750 C 651.206,471.750 650.738,482 650.738,482 C 650.738,482 646.091,482 646.091,482 C 639.818,482 637,484.086 637,488.728 C 637,494.100 639.261,496 645.655,496 C 645.655,496 651,496 651,496 C 651,496 651,523.566 651,523.566 C 651,541.158 651.385,551.852 652.065,553.122 C 654.192,557.096 660.450,557.692 664.235,554.281M 590.545,553.545 C 593.278,550.812 593.534,549.267 591.862,545.597 C 590.010,541.533 586.703,541.074 563.774,541.706 C 552.074,542.028 539.487,541.968 535.804,541.572 C 535.804,541.572 529.107,540.852 529.107,540.852 C 529.107,540.852 536.353,530.676 536.353,530.676 C 540.338,525.079 547.299,515.600 551.823,509.611 C 559.768,499.092 559.979,498.674 558.030,497.309 C 556.142,495.987 554.796,497.026 537.093,513.491 C 514.529,534.477 507.981,542.402 508.015,548.684 C 508.054,555.841 508.605,555.936 550.795,555.970 C 550.795,555.970 588.091,556 588.091,556 C 588.091,556 590.545,553.545 590.545,553.545M 620.425,456.077 C 623.528,452.899 624.133,451.668 623.613,449.595 C 622.929,446.870 618.497,444 614.973,444 C 612.217,444 607,449.227 607,451.989 C 607,454.408 608.747,458.131 610.400,459.235 C 613.084,461.027 616.705,459.887 620.425,456.077" stroke="#FFFFFF" fill="#FFFFFF" stroke-width="1" />
  <path id="25" d="M 708.455,588.545 C 707.105,587.195 706,585.322 706,584.381 C 706,583.440 709.204,575.560 713.120,566.870 C 713.120,566.870 720.241,551.070 720.241,551.070 C 720.241,551.070 717.706,544.785 717.706,544.785 C 716.312,541.328 710.595,528.375 705.003,516 C 691.887,486.976 692.423,488.529 694.448,485.438 C 696.702,481.998 700.625,480.602 704.050,482.021 C 707.237,483.341 706.755,482.434 717.342,507 C 727.570,530.732 728.158,532 728.951,532 C 729.589,532 730.321,530.386 743.017,501 C 746.938,491.925 750.874,483.938 751.764,483.250 C 752.654,482.562 755.070,482 757.134,482 C 763.810,482 765.930,488.297 761.908,496.181 C 760.757,498.436 750.863,519.864 739.921,543.798 C 728.979,567.732 719.275,588.143 718.358,589.157 C 715.991,591.772 711.398,591.488 708.455,588.545" stroke="#000000" fill="#000000" stroke-width="1" />
  <path id="25" d="M 266.030,555.714 C 264.672,555.031 262.897,553.288 262.085,551.842 C 260.691,549.358 260.896,548.581 265.805,537.743 C 268.663,531.435 271,525.986 271,525.636 C 271,525.286 269.855,525 268.455,525 C 265.260,525 261,520.850 261,517.737 C 261,513.325 263.243,511.731 271.111,510.551 C 271.111,510.551 278.500,509.443 278.500,509.443 C 278.500,509.443 289.184,485.471 289.184,485.471 C 306.776,446 306.557,446.427 309.962,445.016 C 314.424,443.168 318.404,445.114 320.885,450.356 C 323.130,455.101 359.346,544.310 360.443,547.799 C 362.032,552.852 355.669,557.827 350.099,555.885 C 346.951,554.787 346.602,554.107 337.432,531.128 C 337.432,531.128 333.692,521.756 333.692,521.756 C 333.692,521.756 311.596,522.470 311.596,522.470 C 299.443,522.863 289.198,523.480 288.829,523.842 C 288.460,524.204 285.391,530.800 282.008,538.500 C 278.625,546.200 275.102,553.241 274.179,554.146 C 271.711,556.565 268.824,557.120 266.030,555.714M 327.724,507.554 C 328.425,507.028 313.269,470.560 312.468,470.846 C 311.512,471.187 296,506.211 296,508.028 C 296,508.771 326.715,508.312 327.724,507.554" stroke="#000000" fill="#000000" stroke-width="1" />
  <path id="25" d="M 322.395,595.169 C 322.677,594.712 325.516,593.759 328.704,593.050 C 347.586,588.851 379.504,574.522 399.071,561.459 C 421.684,546.363 444.668,525.494 470.337,496.750 C 481.901,483.801 482.129,483.887 498.344,507.268 C 498.344,507.268 504.425,516.035 504.425,516.035 C 504.425,516.035 512.963,507.756 512.963,507.756 C 517.659,503.203 528.732,492.395 537.571,483.739 C 547.556,473.960 554.403,468 555.653,468 C 556.798,468 559.051,466.276 560.880,464 C 560.880,464 564.094,460 564.094,460 C 564.094,460 538.047,460 538.047,460 C 513.333,460 511.898,459.898 510,458 C 507.022,455.022 507.333,449.670 510.635,447.073 C 513.181,445.070 514.394,445 546.680,445 C 546.680,445 580.091,445 580.091,445 C 580.091,445 582.545,447.455 582.545,447.455 C 587.296,452.206 586.354,454.600 573.750,469.791 C 570.588,473.603 568.037,477.122 568.081,477.611 C 568.125,478.100 572.513,482.443 577.831,487.263 C 577.831,487.263 587.500,496.027 587.500,496.027 C 587.500,496.027 597.007,486.263 597.007,486.263 C 606.921,476.081 651.649,429.021 665.487,414.212 C 671.767,407.492 672.943,405.795 670.987,406.276 C 663.565,408.102 658.340,408.197 656.677,406.534 C 654.709,404.566 654.458,399.686 656.250,398.226 C 657.567,397.153 683.300,392.994 688.595,392.998 C 690.379,392.999 692.429,393.817 693.435,394.928 C 695.008,396.666 695.108,398.397 694.453,412.494 C 693.667,429.412 693.124,431 688.129,431 C 684.030,431 683,429.265 683,422.359 C 683,418.926 682.652,415.903 682.226,415.640 C 681.800,415.377 676.550,420.413 670.559,426.831 C 664.568,433.249 649.054,449.721 636.083,463.435 C 623.112,477.149 607.800,493.462 602.055,499.685 C 593.088,509.399 591.177,510.997 588.555,510.977 C 585.289,510.953 580.857,507.564 564.715,492.750 C 556.620,485.321 554.564,484.013 553.833,485.828 C 553.650,486.283 542.802,496.885 529.727,509.389 C 500.370,537.463 503.142,536.726 491.336,519.602 C 486.825,513.058 482.490,507.061 481.704,506.275 C 480.465,505.036 479.073,506.226 471.248,515.215 C 433.263,558.848 388.267,586.164 340.500,594.587 C 331.675,596.143 321.593,596.467 322.395,595.169" stroke="#000000" fill="#000000" stroke-width="1" />
  <path id="25" d="M 611.413,554.678 C 611.413,554.678 608.500,552.172 608.500,552.172 C 608.500,552.172 608.717,532.836 608.717,532.836 C 608.836,522.201 608.949,511.193 608.967,508.372 C 608.999,503.456 609.273,502.948 615.594,496.121 C 619.221,492.204 622.596,489.250 623.094,489.558 C 623.603,489.873 624,503.613 624,520.948 C 624,548.840 623.833,551.979 622.250,553.886 C 619.414,557.302 614.850,557.635 611.413,554.678" stroke="#000000" fill="#000000" stroke-width="1" />
  <path id="28" d="M 376.020,874.256 C 374.106,873.290 371.590,871.077 370.429,869.338 C 368.366,866.247 368.303,864.927 367.658,810.338 C 367.268,777.389 367.375,752.923 367.916,750.653 C 368.925,746.421 372.038,742.571 378.589,744 C 377.813,744 376.013,745.385 374.589,747.077 C 374.589,747.077 372,750.153 372,750.153 C 372,750.153 372,807.561 372,807.561 C 372,807.561 372,864.968 372,864.968 C 372,864.968 374.918,868.234 374.918,868.234 C 374.918,868.234 377.836,871.500 377.836,871.500 C 377.836,871.500 512.424,871.761 512.424,871.761 C 661.161,872.049 652.143,872.434 655.360,865.654 C 656.914,862.379 657.039,857.106 656.782,805.916 C 656.782,805.916 656.500,749.770 656.500,749.770 C 656.500,749.770 652.250,745.999 652.250,745.999 C 648.407,742.589 646.664,739 648.852,739 C 650.448,739 656.310,743.492 658.408,746.323 C 660.465,749.099 660.504,750.092 660.774,806.207 C 661.040,861.550 660.988,863.393 659.045,867.406 C 657.943,869.682 655.570,872.434 653.771,873.522 C 650.560,875.464 647.997,875.505 515,875.756 C 387.462,875.997 379.296,875.909 376.020,874.256" stroke="#020202" fill="#020202" stroke-width="1" />
  <path id="25" d="M 655.315,556.015 C 654.113,555.519 652.651,554.217 652.065,553.122 C 651.385,551.852 651,541.158 651,523.566 C 651,523.566 651,496 651,496 C 651,496 645.655,496 645.655,496 C 639.261,496 637,494.100 637,488.728 C 637,484.086 639.818,482 646.091,482 C 646.091,482 650.738,482 650.738,482 C 650.738,482 651.206,471.750 651.206,471.750 C 651.844,457.769 655.209,451.577 665,446.366 C 670.235,443.580 684.011,443.813 689.684,446.783 C 696.866,450.543 699.204,456.796 695,461 C 692.251,463.749 687.737,463.516 682.330,460.348 C 678.490,458.098 677.265,457.832 674.248,458.598 C 668.615,460.027 666.719,463.532 666.197,473.477 C 666.197,473.477 665.749,482 665.749,482 C 665.749,482 674.686,482 674.686,482 C 684.833,482 688,483.648 688,488.928 C 688,494.493 685.530,495.937 675.500,496.234 C 675.500,496.234 666.500,496.500 666.500,496.500 C 666.500,496.500 666.235,524.609 666.235,524.609 C 665.997,549.811 665.790,552.879 664.235,554.281 C 661.925,556.363 658.005,557.125 655.315,556.015" stroke="#000000" fill="#000000" stroke-width="1" />
  <path id="28" d="M 607.527,847.644 C 605.753,846.346 605.838,845.934 609.490,838.151 C 609.490,838.151 613.309,830.015 613.309,830.015 C 613.309,830.015 606.617,815.186 606.617,815.186 C 599.743,799.953 599.235,797 603.485,797 C 606.457,797 606.902,797.669 612.020,809.804 C 614.410,815.471 616.645,820.281 616.987,820.492 C 617.329,820.703 619.850,815.617 622.588,809.188 C 627.339,798.033 627.700,797.500 630.519,797.500 C 632.421,797.500 633.581,798.065 633.778,799.087 C 634.128,800.906 614.590,844.599 612.241,847.250 C 610.375,849.356 609.920,849.394 607.527,847.644" stroke="#020202" fill="#020202" stroke-width="1" />
  <path id="28" d="M 396.292,831.318 C 395.739,829.876 396.834,825.851 395.500,814.524 C 395.500,812.722 397.050,811.832 402.590,810.456 C 403.190,810.307 406.741,803.404 410.481,795.115 C 417.377,779.833 419.596,777.070 422.500,780.147 C 423.202,780.891 428.157,792.275 433.511,805.444 C 443.691,830.484 444.092,832.500 438.891,832.500 C 436.834,832.500 436.081,831.419 433.500,824.753 C 433.500,824.753 430.500,817.007 430.500,817.007 C 430.500,817.007 419.434,817.003 419.434,817.003 C 419.434,817.003 408.368,817 408.368,817 C 408.368,817 406.053,822.750 406.053,822.750 C 404.780,825.912 403.110,829.513 402.345,830.750 C 400.709,833.395 397.215,833.722 396.292,831.318M 427,809.172 C 427,807.826 421.893,795.613 420.743,794.208 C 420.161,793.497 419.351,793.272 418.943,793.708 C 418.245,794.453 412,808.752 412,809.605 C 412,809.822 415.375,810 419.500,810 C 423.625,810 427,809.627 427,809.172" stroke="#020202" fill="#020202" stroke-width="1" />
  <path id="25" d="M 483.465,556.048 C 479.755,554.544 478.751,552.086 476.391,538.735 C 475.104,531.456 474.058,525.050 474.066,524.500 C 474.074,523.950 475.357,522.010 476.915,520.189 C 476.915,520.189 479.748,516.878 479.748,516.878 C 479.748,516.878 485.201,524.689 485.201,524.689 C 489.965,531.512 490.874,533.617 492.393,541.325 C 493.999,549.476 494.009,550.338 492.514,552.619 C 491.256,554.538 486.838,557.332 485.685,556.937 C 485.583,556.902 484.584,556.502 483.465,556.048" stroke="#000000" fill="#000000" stroke-width="1" />
  <path id="28" d="M 424.083,851.606 C 424.312,851.389 428.651,849.827 433.723,848.134 C 453.747,841.452 468.092,831.972 486.651,813.156 C 501.564,798.037 499.884,798.442 506.949,808.280 C 508.813,810.876 510.608,813 510.937,813 C 511.266,813 516.469,808.050 522.500,802 C 528.531,795.950 534.021,791 534.218,786.637 C 532.173,786.299 526.533,786.017 521.684,786.011 C 521.684,786.011 512.867,786 513.500,780.500 C 513.500,780.500 530.426,780.225 530.426,780.225 C 547.488,779.948 548.938,780.212 548.985,783.609 C 548.993,784.219 547.120,786.854 544.822,789.465 C 540.120,794.807 540.205,795.422 546.330,800.380 C 546.330,800.380 549.999,803.349 549.999,803.349 C 549.999,803.349 552.616,800.925 552.616,800.925 C 555.876,797.904 589,762.313 589,761.832 C 589,761.639 587.537,761.485 585.750,761.490 C 583.153,761.498 582.437,761.055 582.185,759.285 C 581.952,757.649 582.475,756.941 584.185,756.575 C 593.253,754.632 598.323,753.910 599.561,754.385 C 601.510,755.133 601.578,768.828 599.645,771.471 C 597.842,773.936 595,772.785 595,769.590 C 595,765.432 593.362,765.768 588.834,770.852 C 571.999,789.756 551.459,811 550.016,811 C 549.066,811 545.281,808.244 541.604,804.875 C 541.604,804.875 534.920,798.749 534.920,798.749 C 534.920,798.749 523.043,810.375 523.043,810.375 C 516.090,817.181 510.614,821.785 509.833,821.481 C 509.100,821.195 506.527,818.257 504.115,814.951 C 504.115,814.951 499.729,808.941 499.729,808.941 C 499.729,808.941 488.615,819.780 488.615,819.780 C 473.257,834.757 460.902,842.696 445,847.808 C 436.659,850.490 422.557,853.050 424.083,851.606" stroke="#020202" fill="#020202" stroke-width="1" />
  <path id="28" d="M 560.667,832.333 C 560.300,831.966 560,826.200 560,819.520 C 560,807.517 560.033,807.342 562.805,804.687 C 564.348,803.209 565.923,802 566.305,802 C 567.585,802 567.102,830.498 565.800,831.800 C 564.493,833.107 561.728,833.394 560.667,832.333" stroke="#020202" fill="#020202" stroke-width="1" />
  <path id="25" d="M 377.285,555.516 C 371.479,553.006 371.020,557.422 384.617,485.106 C 388.174,466.189 391.518,449.901 392.049,448.908 C 393.405,446.375 397.052,444 399.588,444 C 403.243,444 406.711,447.687 408.759,453.750 C 413.744,468.510 433.392,520 434.039,520 C 434.915,520 435.745,517.927 450.447,479 C 462.397,447.360 464.219,444 469.421,444 C 472.578,444 476.627,447.384 477.479,450.734 C 477.866,452.255 479.208,459.237 480.462,466.250 C 480.462,466.250 482.742,479 482.742,479 C 482.742,479 480.321,479 480.321,479 C 477.497,479 472.915,481.193 466.663,478.500 C 466.203,478.500 464.097,483.190 461.982,488.921 C 461.982,488.921 458.137,499.342 458.137,499.342 C 458.137,499.342 440.849,516.651 440.849,516.651 C 431.340,526.171 423.263,533.632 422.899,533.230 C 422.535,532.828 417.875,520.800 412.543,506.500 C 407.211,492.200 402.458,480.097 401.980,479.605 C 400.873,478.466 401.142,477.177 393.999,517.991 C 387.771,553.581 387.345,554.998 382.500,556.348 C 381.400,556.654 379.053,556.280 377.285,555.516" stroke="#000000" fill="#000000" stroke-width="1" />
  <path id="28" d="M 499.395,831.830 C 498.958,831.124 498.044,827.611 497.362,824.023 C 496.296,818.411 496.334,817.291 497.630,816 C 498.970,814.666 499.405,814.832 501.564,817.500 C 505.821,822.760 506.304,832.243 502.344,832.807 C 501.158,832.976 499.832,832.536 499.395,831.830" stroke="#020202" fill="#020202" stroke-width="1" />
  <path id="25" d="M 511.500,554.805 C 508.759,553.251 508.033,551.975 508.015,548.684 C 507.981,542.402 514.529,534.477 537.093,513.491 C 554.796,497.026 556.142,495.987 558.030,497.309 C 559.979,498.674 559.768,499.092 551.823,509.611 C 547.299,515.600 540.338,525.079 536.353,530.676 C 536.353,530.676 529.107,540.852 529.107,540.852 C 529.107,540.852 535.804,541.572 535.804,541.572 C 539.487,541.968 552.074,542.028 563.774,541.706 C 586.703,541.074 590.010,541.533 591.862,545.597 C 593.534,549.267 593.278,550.812 590.545,553.545 C 590.545,553.545 588.091,556 588.091,556 C 588.091,556 550.795,555.970 550.795,555.970 C 524.885,555.949 512.889,555.593 511.500,554.805" stroke="#000000" fill="#000000" stroke-width="1" />
  <path id="28" d="M 513.200,831.800 C 510.797,829.397 512.182,827.010 521.768,817.042 C 529.204,809.309 531.956,807.046 533.297,807.560 C 534.921,808.183 534.877,808.480 532.734,811.368 C 526.717,819.479 523,824.820 523,825.357 C 523,825.681 529.412,826.070 537.250,826.223 C 551.418,826.499 551.501,826.514 551.837,828.887 C 552.023,830.200 551.573,831.656 550.837,832.122 C 548.660,833.502 514.611,833.211 513.200,831.800" stroke="#020202" fill="#020202" stroke-width="1" />
  <path id="29" d="M 513.429,821.885 C 513.030,821.239 517.412,816.099 523.859,809.652 C 523.859,809.652 534.978,798.533 534.978,798.533 C 540.345,800.520 536.507,806.757 536.338,806.250 C 535.333,803.760 533.207,805.158 524.555,814 C 519.711,818.950 515.381,823 514.933,823 C 514.485,823 513.808,822.498 513.429,821.885" stroke="#F8F4F3" fill="#F8F4F3" stroke-width="1" />
  <path id="28" d="M 450.250,832.338 C 448.442,831.609 448.521,830.855 453.158,804.643 C 457.064,782.559 457.553,780.705 459.726,779.715 C 463.175,778.144 464.074,779.570 469.998,796 C 476.119,812.979 477.607,816.171 478.382,814 C 483.827,798.754 491.233,780.466 492.220,779.829 C 495.841,777.492 498.431,781.123 499.475,790 C 500.105,795.361 500.045,795.542 497.079,797.193 C 494.277,798.752 493.964,798.757 493.125,797.258 C 492.407,795.974 491.823,796.729 490.369,800.824 C 488.956,804.802 486.617,807.915 480.378,814.121 C 480.378,814.121 472.232,822.225 472.232,822.225 C 472.232,822.225 469.274,814.362 469.274,814.362 C 467.647,810.038 465.676,804.736 464.896,802.580 C 464.116,800.424 463.018,798.506 462.457,798.319 C 461.860,798.120 460.345,804.632 458.800,814.039 C 455.809,832.250 454.893,834.211 450.250,832.338" stroke="#020202" fill="#020202" stroke-width="1" />
  <path id="28" d="M 581.250,832.338 C 580.335,831.969 580,828.137 580,818.028 C 580,818.028 580,804.223 580,804.223 C 580,804.223 576.439,803.555 576.439,803.555 C 573.295,802.965 572.914,802.572 573.189,800.198 C 573.433,798.089 574.147,797.399 576.500,796.998 C 579.300,796.521 579.536,796.137 580.029,791.234 C 580.452,787.035 581.208,785.331 583.798,782.741 C 586.660,779.879 587.676,779.500 592.491,779.500 C 596.823,779.500 598.410,779.966 600.208,781.764 C 602.021,783.577 602.250,784.374 601.359,785.764 C 600.242,787.506 597.761,787.719 592.908,786.486 C 589.313,785.573 587,788.129 587,793.017 C 587,793.017 587,796.890 587,796.890 C 587,796.890 591.750,797.195 591.750,797.195 C 596.100,797.474 596.526,797.732 596.816,800.250 C 597.078,802.528 596.735,803.017 594.816,803.099 C 593.542,803.153 591.375,803.266 590,803.349 C 590,803.349 587.500,803.500 587.500,803.500 C 587.500,803.500 587.220,816.934 587.220,816.934 C 586.903,832.129 586.068,834.282 581.250,832.338" stroke="#020202" fill="#020202" stroke-width="1" />
  <path id="27" d="M 532.177,806.286 C 533.630,804.535 536,804.661 536,806.489 C 536,807.457 535.144,807.907 533.555,807.775 C 531.685,807.620 531.360,807.270 532.177,806.286" stroke="#1C1C1A" fill="#1C1C1A" stroke-width="1" />
  <path id="28" d="M 559.611,784.428 C 558.072,780.416 563.288,777.233 566.016,780.519 C 567.047,781.762 566.950,782.398 565.483,784.019 C 563.331,786.397 560.444,786.598 559.611,784.428" stroke="#020202" fill="#020202" stroke-width="1" />
  <path id="25" d="M 610.400,459.235 C 608.747,458.131 607,454.408 607,451.989 C 607,449.227 612.217,444 614.973,444 C 618.497,444 622.929,446.870 623.613,449.595 C 624.133,451.668 623.528,452.899 620.425,456.077 C 616.705,459.887 613.084,461.027 610.400,459.235" stroke="#000000" fill="#000000" stroke-width="1" />
  <path id="1" d="M 296,508.028 C 296,506.211 311.512,471.187 312.468,470.846 C 313.269,470.560 328.425,507.028 327.724,507.554 C 326.715,508.312 296,508.771 296,508.028" stroke="#FFFFFF" fill="#FFFFFF" stroke-width="1" />
</svg>
